<svg width="148" height="20" viewBox="0 0 148 20" fill="none" xmlns="http://www.w3.org/2000/svg">
<g clip-path="url(#clip0_1_2322)">
<path d="M10.0001 0.5L12.2452 7.40983H19.5107L13.6328 11.6803L15.878 18.5902L10.0001 14.3197L4.12222 18.5902L6.36736 11.6803L0.489502 7.40983H7.75493L10.0001 0.5Z" fill="white"/>
</g>
<g clip-path="url(#clip1_1_2322)">
<path d="M42.0001 0.5L44.2452 7.40983H51.5107L45.6328 11.6803L47.878 18.5902L42.0001 14.3197L36.1222 18.5902L38.3674 11.6803L32.4895 7.40983H39.7549L42.0001 0.5Z" fill="white"/>
</g>
<g clip-path="url(#clip2_1_2322)">
<path d="M74.0001 0.5L76.2452 7.40983H83.5107L77.6328 11.6803L79.878 18.5902L74.0001 14.3197L68.1222 18.5902L70.3674 11.6803L64.4895 7.40983H71.7549L74.0001 0.5Z" fill="white"/>
</g>
<g clip-path="url(#clip3_1_2322)">
<path d="M106 0.5L108.245 7.40983H115.511L109.633 11.6803L111.878 18.5902L106 14.3197L100.122 18.5902L102.367 11.6803L96.4895 7.40983H103.755L106 0.5Z" fill="white"/>
</g>
<g clip-path="url(#clip4_1_2322)">
<path d="M138 0.5L140.245 7.40983H147.511L141.633 11.6803L143.878 18.5902L138 14.3197L132.122 18.5902L134.367 11.6803L128.49 7.40983H135.755L138 0.5Z" fill="white"/>
</g>
<defs>
<clipPath id="clip0_1_2322">
<rect width="20" height="19" fill="white" transform="translate(0 0.5)"/>
</clipPath>
<clipPath id="clip1_1_2322">
<rect width="20" height="19" fill="white" transform="translate(32 0.5)"/>
</clipPath>
<clipPath id="clip2_1_2322">
<rect width="20" height="19" fill="white" transform="translate(64 0.5)"/>
</clipPath>
<clipPath id="clip3_1_2322">
<rect width="20" height="19" fill="white" transform="translate(96 0.5)"/>
</clipPath>
<clipPath id="clip4_1_2322">
<rect width="20" height="19" fill="white" transform="translate(128 0.5)"/>
</clipPath>
</defs>
</svg>
