<svg width="72" height="72" viewBox="0 0 72 72" fill="none" xmlns="http://www.w3.org/2000/svg">
<g clip-path="url(#clip0_1_2315)">
<path d="M19.2096 32.8516V34.9504C19.2096 39.3388 20.3544 42.7732 22.644 45.2536C24.9336 47.734 28.1772 49.2604 32.5656 49.642V57.274C25.506 57.0832 19.9728 54.9844 15.966 50.7868C11.7684 46.5892 9.86035 41.056 9.86035 34.1872V14.7256H26.8415L26.8416 32.8516H19.2096ZM48.7836 32.8516V34.9504C48.7836 39.3388 49.9284 42.7732 52.218 45.2536C54.5076 47.734 57.7512 49.2604 62.1396 49.642V57.274C55.08 57.0832 49.5468 54.9844 45.54 50.7868C41.3424 46.5892 39.4344 41.056 39.4344 34.1872V14.7256H56.4156V32.8516H48.7836Z" fill="white"/>
</g>
<defs>
<clipPath id="clip0_1_2315">
<rect width="72" height="72" fill="white"/>
</clipPath>
</defs>
</svg>
