<svg width="45" height="45" viewBox="0 0 45 45" fill="none" xmlns="http://www.w3.org/2000/svg">
<path d="M22.5001 8.34122C25.9616 -5.59943 41.5385 2.14538 41.5385 2.14538L41.5384 4.72702V6.23881L45 5.24343L44.9999 36.7389C44.9999 36.7389 25.9615 37.7715 22.5001 45C19.0385 37.7715 0 36.7389 0 36.7389V5.2433L3.46157 6.23867V4.72702V2.1455C3.46157 2.1455 19.0385 -5.59943 22.5001 8.34122ZM39.8076 31.087L39.8077 5.30799C34.6154 4.72702 29.4231 0.596416 23.3655 10.4918L23.3654 37.7267C26.3449 33.2788 34.9722 32.7866 39.8076 31.087ZM5.1923 5.30799V31.087C10.0277 32.7866 18.655 33.2788 21.6346 37.7267V10.4918C15.577 0.596416 10.3847 4.72702 5.1923 5.30799Z" fill="white"/>
</svg>
